HIERARCHY
ROOT Hips
{
 OFFSET 0.000000 0.000000 0.000000
 CHANNELS 6 Xposition Yposition Zposition Yrotation Xrotation Zrotation
 JOINT Chest
 {
  OFFSET 0.000000 9.581000 -0.001100
  CHANNELS 3 Yrotation Xrotation Zrotation
  JOINT Chest2
  {
   OFFSET 0.000000 9.561100 0.002200
   CHANNELS 3 Yrotation Xrotation Zrotation
   JOINT Chest3
   {
    OFFSET 0.000000 9.521100 0.000000
    CHANNELS 3 Yrotation Xrotation Zrotation
    JOINT Chest4
    {
     OFFSET 0.000000 9.511400 0.000000
     CHANNELS 3 Yrotation Xrotation Zrotation
     JOINT Neck
     {
      OFFSET 0.000000 14.375100 0.000000
      CHANNELS 3 Yrotation Xrotation Zrotation
      JOINT Head
      {
       OFFSET 0.000000 8.901200 0.004600
       CHANNELS 3 Yrotation Xrotation Zrotation
       End Site
       {
        OFFSET 0.000000 16.962200 0.002400
       }
      }
     }
     JOINT RightCollar
     {
      OFFSET -2.920100 9.518800 0.000000
      CHANNELS 3 Yrotation Xrotation Zrotation
      JOINT RightShoulder
      {
       OFFSET -13.664500 0.000000 0.000000
       CHANNELS 3 Yrotation Xrotation Zrotation
       JOINT RightElbow
       {
        OFFSET 0.000000 -29.999200 0.000000
        CHANNELS 3 Yrotation Xrotation Zrotation
        JOINT RightWrist
        {
         OFFSET 0.000000 -24.253600 0.000000
         CHANNELS 3 Yrotation Xrotation Zrotation
         End Site
         {
          OFFSET 0.000000 -17.918900 0.000000
         }
        }
       }
      }
     }
     JOINT LeftCollar
     {
      OFFSET 2.920100 9.518800 0.000000
      CHANNELS 3 Yrotation Xrotation Zrotation
      JOINT LeftShoulder
      {
       OFFSET 13.664500 0.000000 0.000000
       CHANNELS 3 Yrotation Xrotation Zrotation
       JOINT LeftElbow
       {
        OFFSET 0.000000 -29.999200 0.000000
        CHANNELS 3 Yrotation Xrotation Zrotation
        JOINT LeftWrist
        {
         OFFSET 0.000000 -24.253600 0.000000
         CHANNELS 3 Yrotation Xrotation Zrotation
         End Site
         {
          OFFSET 0.000000 -17.918900 0.000000
         }
        }
       }
      }
     }
    }
   }
  }
 }
 JOINT RightHip
 {
  OFFSET -7.797300 0.005300 0.000500
  CHANNELS 3 Yrotation Xrotation Zrotation
  JOINT RightKnee
  {
   OFFSET 0.000000 -40.663400 -0.000500
   CHANNELS 3 Yrotation Xrotation Zrotation
   JOINT RightAnkle
   {
    OFFSET 0.000000 -39.523700 -0.000900
    CHANNELS 3 Yrotation Xrotation Zrotation
    JOINT RightToe
    {
     OFFSET 0.000000 -6.418000 14.485300
     CHANNELS 3 Yrotation Xrotation Zrotation
     End Site
     {
      OFFSET 0.000000 -1.465200 6.326400
     }
    }
   }
  }
 }
 JOINT LeftHip
 {
  OFFSET 7.797300 0.005300 0.000500
  CHANNELS 3 Yrotation Xrotation Zrotation
  JOINT LeftKnee
  {
   OFFSET 0.000000 -40.663400 -0.000500
   CHANNELS 3 Yrotation Xrotation Zrotation
   JOINT LeftAnkle
   {
    OFFSET 0.000000 -39.523700 -0.000900
    CHANNELS 3 Yrotation Xrotation Zrotation
    JOINT LeftToe
    {
     OFFSET 0.000000 -6.418000 14.485300
     CHANNELS 3 Yrotation Xrotation Zrotation
     End Site
     {
      OFFSET 0.000000 -1.465200 6.326400
     }
    }
   }
  }
 }
}
MOTION
Frames: 16
Frame Time: 0.008333
-18.824273 126.897709 17.788544 -173.913023 -48.132670 -4.689975 -0.834673 27.156363 0.976354 -0.165808 4.700527 0.197274 -0.267371 7.441363 0.301857 -0.715313 22.138936 0.820176 2.852263 15.122247 1.142580 2.709861 -9.811031 0.542194 1.633623 1.244175 1.336611 5.394613 -9.067813 -9.098904 -108.524370 -68.205382 153.772597 10.702374 12.494076 -19.686500 -9.366423 -1.411041 -0.524009 -5.617812 -8.892193 10.741879 66.269697 -59.896353 -108.998428 -0.806169 -5.339136 21.158791 -19.554873 -14.883577 2.199469 -10.610956 67.006258 4.076887 16.532854 -13.738942 -1.118632 0.000882 -0.002295 0.000391 14.927244 -6.482637 1.633102 -179.405676 84.449350 175.025216 -11.150550 -13.947580 4.908968 -0.001496 0.001593 -0.000663
-18.824473 126.897202 17.789702 -173.911733 -48.133657 -4.689031 -0.829164 27.157477 0.980359 -0.165637 4.702174 0.197027 -0.263179 7.444637 0.302850 -0.697655 22.150030 0.825829 2.840163 15.094941 1.153499 2.705844 -9.828513 0.551212 1.608896 1.224676 1.337915 5.401439 -9.063512 -9.095560 -108.505861 -68.201060 153.758330 10.698247 12.505696 -19.684788 -9.383868 -1.431166 -0.517124 -5.601807 -8.888755 10.736433 66.253429 -59.903335 -108.990190 -0.802565 -5.327251 21.155034 -19.549676 -14.884171 2.200989 -10.598039 67.002220 4.082306 16.520503 -13.730505 -1.111072 0.000173 -0.003014 0.000077 14.934082 -6.482711 1.639291 -179.353560 84.452808 175.082162 -11.153203 -13.946757 4.900908 -0.001196 0.001121 -0.000530
-18.824868 126.897143 17.790406 -173.906573 -48.138230 -4.690085 -0.823460 27.162889 0.985049 -0.164132 4.703328 0.195530 -0.261238 7.447010 0.304118 -0.690995 22.152956 0.830426 2.838405 15.076552 1.163260 2.712091 -9.879215 0.575805 1.598993 1.212491 1.336662 5.411601 -9.058788 -9.087678 -108.508133 -68.203540 153.749698 10.695506 12.514807 -19.681437 -9.389487 -1.444606 -0.514067 -5.601653 -8.884097 10.735353 66.243739 -59.905746 -108.985291 -0.799646 -5.319284 21.158294 -19.546916 -14.880942 2.197346 -10.598368 67.000974 4.081031 16.515630 -13.724009 -1.108378 0.000294 -0.003614 0.000130 14.942423 -6.477617 1.648667 -179.246491 84.455688 175.197049 -11.153559 -13.950016 4.883520 -0.000124 0.000290 -0.000055
-18.824701 126.897018 17.791149 -173.904308 -48.142091 -4.692237 -0.805209 27.166560 0.994304 -0.167029 4.704601 0.196931 -0.268902 7.447371 0.304514 -0.678259 22.156438 0.835293 2.837502 15.060579 1.173064 2.704926 -9.889736 0.583447 1.591126 1.201747 1.338861 5.416917 -9.054140 -9.088924 -108.513081 -68.202975 153.741133 10.687751 12.521250 -19.657250 -9.395633 -1.456237 -0.509773 -5.600543 -8.878773 10.733452 66.244114 -59.914288 -108.976701 -0.787223 -5.315139 21.141761 -19.532233 -14.879567 2.193307 -10.613657 67.001251 4.077675 16.517069 -13.710271 -1.107488 0.000876 -0.003086 0.000388 14.945746 -6.475409 1.657345 -179.237576 84.457623 175.208064 -11.157665 -13.948804 4.876315 -0.000879 0.000004 -0.000389
-18.824164 126.897374 17.791471 -173.891927 -48.148911 -4.704259 -0.808663 27.173815 0.998301 -0.158169 4.705848 0.199204 -0.274100 7.447394 0.303717 -0.665557 22.160252 0.840089 2.837524 15.045971 1.182798 2.691891 -9.887132 0.584625 1.584919 1.191261 1.342974 5.423889 -9.048898 -9.091762 -108.507339 -68.198164 153.730087 10.690413 12.526514 -19.661100 -9.407983 -1.463912 -0.504704 -5.594044 -8.876457 10.730248 66.252860 -59.925687 -108.970317 -0.772885 -5.303618 21.131658 -19.531489 -14.871809 2.191476 -10.608680 66.998341 4.084822 16.522599 -13.696674 -1.102905 0.001627 -0.002643 0.000721 14.947381 -6.470509 1.670762 -179.183571 84.457878 175.269442 -11.164680 -13.947555 4.873955 -0.000895 0.000658 -0.000396
-18.824414 126.897097 17.792353 -173.888709 -48.151576 -4.704205 -0.798961 27.174902 1.003384 -0.158571 4.708975 0.200300 -0.258760 7.451454 0.306976 -0.673393 22.159085 0.841733 2.828795 15.036558 1.189717 2.699382 -9.907876 0.594987 1.579939 1.181472 1.349181 5.432687 -9.044446 -9.096862 -108.494516 -68.193846 153.714995 10.692353 12.529537 -19.670115 -9.422287 -1.470346 -0.497365 -5.592236 -8.874694 10.725890 66.263256 -59.937473 -108.964705 -0.768200 -5.300615 21.127426 -19.529928 -14.865392 2.196583 -10.618077 66.992561 4.080976 16.475303 -13.713548 -1.109968 -0.001065 -0.004787 -0.000472 14.955706 -6.469815 1.673701 -179.064668 84.458852 175.400123 -11.164281 -13.944119 4.868753 0.000244 0.001193 0.000108
-18.824489 126.896257 17.793745 -173.891049 -48.150129 -4.700693 -0.789497 27.176492 1.007873 -0.157349 4.705879 0.200794 -0.254254 7.452201 0.308257 -0.667309 22.160859 0.844017 2.818651 15.029521 1.196857 2.703956 -9.925939 0.607098 1.575299 1.170901 1.354903 5.442688 -9.039382 -9.103125 -108.460729 -68.183578 153.703038 10.693782 12.533879 -19.693771 -9.434632 -1.477607 -0.490606 -5.593860 -8.870161 10.721693 66.274966 -59.948691 -108.960968 -0.768188 -5.291047 21.131942 -19.517376 -14.869706 2.191736 -10.630998 66.991289 4.077730 16.488062 -13.702993 -1.108172 0.000165 -0.004242 0.000073 14.964841 -6.474147 1.678828 -178.955295 84.458324 175.512721 -11.166307 -13.938703 4.869080 -0.000238 0.001389 -0.000105
-18.825557 126.896178 17.794511 -173.885165 -48.154628 -4.698150 -0.782635 27.178674 1.010540 -0.166708 4.707841 0.197731 -0.245303 7.452115 0.310775 -0.660760 22.162911 0.846749 2.817049 15.019333 1.204954 2.698730 -9.936923 0.618049 1.565731 1.159420 1.365307 5.456918 -9.032554 -9.116579 -108.457650 -68.180874 153.684926 10.689085 12.530095 -19.684127 -9.439883 -1.485035 -0.482029 -5.597711 -8.863438 10.718575 66.283461 -59.950641 -108.968243 -0.767318 -5.287756 21.132955 -19.508224 -14.868854 2.178511 -10.624596 66.991150 4.092263 16.490583 -13.695131 -1.106658 0.000800 -0.003767 0.000355 14.966547 -6.469645 1.678495 -178.913914 84.459117 175.552125 -11.169422 -13.934220 4.873264 -0.001397 0.001521 -0.000619
-18.825621 126.896936 17.794566 -173.887076 -48.165899 -4.697026 -0.764252 27.183230 1.022295 -0.171297 4.711072 0.197327 -0.245418 7.454697 0.309646 -0.653751 22.164394 0.849891 2.827308 15.000439 1.219221 2.681796 -9.939538 0.624305 1.578080 1.142519 1.373874 5.441864 -9.018749 -9.126369 -108.438988 -68.169399 153.674741 10.686525 12.531147 -19.693209 -9.449272 -1.492350 -0.473510 -5.597522 -8.862789 10.716672 66.285646 -59.948627 -108.965975 -0.762241 -5.284287 21.133072 -19.498865 -14.862344 2.166501 -10.631514 66.994203 4.089672 16.525213 -13.668955 -1.101504 0.002837 -0.001614 0.001257 14.968742 -6.461090 1.691716 -178.809101 84.456082 175.650910 -11.174296 -13.930190 4.878333 -0.000622 0.000142 -0.000275
-18.825801 126.896423 17.795771 -173.887686 -48.167053 -4.696598 -0.756537 27.181564 1.024729 -0.162581 4.710335 0.199157 -0.250362 7.456393 0.309845 -0.650203 22.166275 0.853142 2.821774 14.995452 1.225270 2.682501 -9.955156 0.635324 1.585686 1.131651 1.376537 5.438872 -9.011230 -9.129835 -108.401457 -68.154382 153.659743 10.676943 12.524087 -19.705949 -9.437825 -1.512305 -0.464945 -5.598402 -8.847264 10.711828 66.292319 -59.951373 -108.976087 -0.748185 -5.276577 21.122149 -19.502609 -14.862188 2.159565 -10.630221 66.997310 4.095119 16.536363 -13.659624 -1.108352 0.002671 -0.001921 0.001183 14.969194 -6.461110 1.693554 -178.787886 84.454358 175.669872 -11.166319 -13.937725 4.862270 0.000195 -0.000093 0.000086
-18.826132 126.896226 17.796705 -173.887024 -48.170727 -4.697740 -0.749490 27.181070 1.025932 -0.164707 4.712806 0.201042 -0.243917 7.454393 0.309365 -0.654639 22.169829 0.856551 2.823553 14.991092 1.229154 2.681029 -9.968693 0.648193 1.605170 1.118307 1.377331 5.437456 -9.002764 -9.131852 -108.394352 -68.152285 153.640799 10.671433 12.520912 -19.708339 -9.435353 -1.518505 -0.460953 -5.601378 -8.841609 10.708786 66.311942 -59.963474 -108.985106 -0.729996 -5.270505 21.116019 -19.509443 -14.858037 2.155804 -10.626144 66.998876 4.098635 16.536489 -13.653614 -1.114395 0.002110 -0.001987 0.000935 14.970501 -6.459963 1.695964 -178.814482 84.451109 175.644129 -11.172963 -13.940893 4.858357 0.000313 0.000175 0.000139
-18.825701 126.896271 17.797437 -173.890485 -48.176013 -4.701762 -0.736362 27.182175 1.032618 -0.167720 4.714411 0.203456 -0.235948 7.453518 0.308326 -0.646819 22.168592 0.863047 2.817326 14.985515 1.240765 2.671900 -9.974774 0.661684 1.598673 1.116916 1.381026 5.442766 -9.001150 -9.132038 -108.384620 -68.151062 153.627697 10.671683 12.522447 -19.716438 -9.444773 -1.521271 -0.454050 -5.594028 -8.839387 10.707568 66.317179 -59.966739 -108.995057 -0.712239 -5.259569 21.107514 -19.515435 -14.849480 2.159308 -10.615840 66.998014 4.106240 16.528812 -13.647007 -1.120318 0.001013 -0.002065 0.000449 14.973827 -6.459321 1.705597 -178.825010 84.446584 175.631418 -11.177127 -13.943061 4.860035 -0.000577 -0.000267 -0.000256
-18.825905 126.896241 17.798199 -173.893096 -48.180892 -4.703520 -0.727085 27.184626 1.035121 -0.162713 4.712284 0.205567 -0.234445 7.455979 0.306782 -0.615315 22.167250 0.867868 2.796275 14.979670 1.262467 2.662685 -9.979758 0.676404 1.569457 1.112451 1.396147 5.440234 -8.996454 -9.130567 -108.368281 -68.145811 153.625276 10.657885 12.520367 -19.722067 -9.468974 -1.530198 -0.436993 -5.577392 -8.837190 10.707659 66.322915 -59.970057 -109.002890 -0.689916 -5.244342 21.083591 -19.517338 -14.843493 2.159312 -10.620796 66.999134 4.101238 16.529226 -13.638883 -1.124888 0.000984 -0.001710 0.000436 14.974980 -6.458534 1.710146 -178.843659 84.441689 175.610763 -11.179337 -13.946663 4.858848 -0.000872 -0.000842 -0.000386
-18.824988 126.896293 17.798886 -173.897930 -48.185501 -4.710929 -0.716294 27.188549 1.046444 -0.156544 4.711499 0.201283 -0.229120 7.455486 0.309860 -0.611511 22.168299 0.872172 2.807253 14.972276 1.278638 2.644781 -9.981604 0.690238 1.566817 1.102526 1.399644 5.445319 -8.994203 -9.127547 -108.322334 -68.142812 153.590928 10.654775 12.516465 -19.744609 -9.458579 -1.551634 -0.423495 -5.593651 -8.816555 10.697819 66.329192 -59.973127 -109.007415 -0.677351 -5.230957 21.065599 -19.519205 -14.834948 2.166566 -10.626734 66.997242 4.093504 16.537850 -13.624703 -1.124840 0.001001 -0.001517 0.000444 14.974967 -6.460943 1.720756 -178.849321 84.434875 175.605403 -11.181661 -13.949089 4.858688 -0.000633 -0.001106 -0.000281
-18.824640 126.896492 17.799375 -173.901724 -48.191269 -4.715966 -0.703238 27.189968 1.052253 -0.154595 4.711970 0.201905 -0.220462 7.457729 0.314376 -0.620657 22.169089 0.875075 2.816634 14.969315 1.285710 2.632565 -9.986261 0.706136 1.577752 1.094881 1.403637 5.448954 -8.988216 -9.127115 -108.325850 -68.146756 153.580551 10.635342 12.510405 -19.746325 -9.451747 -1.564413 -0.420319 -5.586577 -8.810670 10.696212 66.318276 -59.972245 -109.006909 -0.665106 -5.218153 21.052091 -19.519991 -14.828473 2.169344 -10.614396 66.997612 4.100903 16.545186 -13.606748 -1.121095 0.001094 -0.001506 0.000485 14.975449 -6.460994 1.729669 -178.826164 84.430041 175.628432 -11.185602 -13.947478 4.865107 -0.000552 -0.000838 -0.000245
-18.825012 126.896617 17.799899 -173.900846 -48.195875 -4.720065 -0.687194 27.192806 1.062612 -0.144423 4.711386 0.201820 -0.229018 7.459197 0.315868 -0.604960 22.169158 0.879914 2.798885 14.967586 1.297257 2.629763 -9.990385 0.721367 1.573687 1.085611 1.409396 5.447342 -8.982470 -9.128037 -108.309096 -68.143629 153.557823 10.631810 12.508368 -19.759588 -9.469185 -1.577978 -0.407713 -5.578381 -8.807999 10.695417 66.310664 -59.974561 -109.003687 -0.638526 -5.202214 21.039094 -19.519709 -14.824090 2.168919 -10.611519 66.998445 4.102614 16.546915 -13.590510 -1.119398 0.001227 -0.001122 0.000544 14.973678 -6.460018 1.732095 -178.788701 84.425787 175.665648 -11.176534 -13.949279 4.864733 0.000229 -0.000725 0.000101
